<svg width="229" height="40" viewBox="0 0 229 40" fill="none" xmlns="http://www.w3.org/2000/svg">
<g clip-path="url(#clip0_2012_4)">
<path d="M23.08 2.27C23.15 2.67 23.21 2.95 23.24 3.1C23.2809 3.304 23.2976 3.51209 23.29 3.72C23.2957 4.47688 23.1209 5.22422 22.78 5.9C22.4908 6.52285 21.9966 7.02762 21.38 7.33C20.8996 6.69 20.3147 6.13556 19.65 5.69C18.9471 5.22342 18.192 4.84082 17.4 4.55C16.5784 4.25622 15.7315 4.03864 14.87 3.9C14.027 3.76204 13.1742 3.69182 12.32 3.69C11.5425 3.68383 10.7661 3.74742 10 3.88C9.34722 3.99239 8.70735 4.16994 8.09 4.41C7.60079 4.59342 7.15479 4.876 6.78 5.24C6.62879 5.38899 6.50853 5.56642 6.42615 5.76206C6.34377 5.95771 6.3009 6.16772 6.3 6.38C6.43912 7.00432 6.79304 7.55998 7.3 7.95C7.94156 8.54002 8.64188 9.06275 9.39 9.51C10.21 10.02 11.13 10.51 12.13 11.01C13.13 11.51 14.13 12.01 15.13 12.43C16.33 13 17.37 13.52 18.24 14.01C19.033 14.433 19.7605 14.9685 20.4 15.6C20.9594 16.1718 21.3951 16.8526 21.68 17.6C21.9407 18.4475 22.0491 19.3346 22 20.22C22.0085 21.3739 21.8051 22.5195 21.4 23.6C21.0145 24.6256 20.4184 25.559 19.65 26.34C18.858 27.1334 17.9119 27.7562 16.87 28.17C15.7054 28.6157 14.4668 28.8363 13.22 28.82C11.7937 28.7978 10.3759 28.5963 9 28.22C7.50791 27.8374 6.06501 27.2838 4.7 26.57C3.46637 25.9572 2.34147 25.1465 1.37 24.17C0.959213 23.805 0.626185 23.361 0.390802 22.8645C0.155418 22.3679 0.0225053 21.829 0 21.28C0.033892 20.6611 0.172525 20.0525 0.41 19.48C0.754104 18.6263 1.25241 17.8433 1.88 17.17C2.03285 18.0916 2.41834 18.959 3 19.69C3.84789 20.7918 4.91329 21.7074 6.13 22.38C7.3813 23.1109 8.72727 23.6662 10.13 24.03C11.3948 24.3551 12.6942 24.5263 14 24.54C15.0984 24.5758 16.1938 24.4062 17.23 24.04C17.9471 23.7762 18.606 23.3754 19.17 22.86C19.6024 22.4727 19.9439 21.9946 20.17 21.46C20.3317 21.1011 20.4395 20.7204 20.49 20.33C20.4478 19.8093 20.2166 19.322 19.84 18.96C19.3443 18.462 18.7824 18.0346 18.17 17.69C17.48 17.28 16.67 16.86 15.75 16.43C14.83 16 13.87 15.58 12.88 15.16C11.4 14.5 10.11 13.88 9.04 13.3C8.09566 12.8069 7.20719 12.2135 6.39 11.53C5.75279 11.0106 5.23157 10.3633 4.86 9.63C4.53267 8.92249 4.37188 8.14935 4.39 7.37C4.39723 6.02672 4.81604 4.71793 5.59 3.62C6.45893 2.38697 7.68347 1.4485 9.1 0.93C9.87347 0.592154 10.6866 0.35359 11.52 0.22C12.3561 0.0790297 13.2021 0.00545944 14.05 0C15.5956 0.00159703 17.1335 0.216972 18.62 0.64C20.1425 1.07962 21.6328 1.62426 23.08 2.27Z" fill="#0095FF"/>
<path d="M25.9195 12.5702C25.747 12.2978 25.6377 11.9903 25.5995 11.6702C25.5082 11.2798 25.4579 10.881 25.4495 10.4802C26.0346 10.5773 26.6265 10.6274 27.2195 10.6302H28.7795C29.1395 9.93018 29.5195 9.23018 29.9295 8.54018C30.3395 7.85018 30.7495 7.22018 31.1395 6.65018C31.4777 6.1484 31.8415 5.66442 32.2295 5.20018C32.4622 4.91039 32.7311 4.65161 33.0295 4.43018C33.3329 4.43823 33.6346 4.47845 33.9295 4.55018C34.2995 4.64018 34.6695 4.74018 35.0495 4.87018C35.4295 5.00018 35.7695 5.14018 36.0495 5.28018C36.2857 5.37625 36.5 5.51911 36.6795 5.70018C35.9695 6.60018 35.3695 7.42018 34.8595 8.18018C34.3495 8.94018 33.7995 9.82018 33.2095 10.8002H34.6495C35.1413 10.801 35.6324 10.7676 36.1195 10.7002C36.2421 10.8261 36.3374 10.9758 36.3995 11.1402C36.4705 11.315 36.5078 11.5016 36.5095 11.6902C35.1559 12.1704 33.7254 12.3975 32.2895 12.3602C31.6995 13.5002 31.1795 14.6302 30.7195 15.7502C30.2595 16.8702 29.8695 17.9602 29.5495 19.0002C29.2467 19.9652 28.9996 20.9468 28.8095 21.9402C28.6406 22.7597 28.5502 23.5935 28.5395 24.4302C28.5395 25.4702 28.9295 26.0502 29.7095 26.1702C30.3954 26.076 31.0671 25.898 31.7095 25.6402C32.3226 25.3928 32.8955 25.0558 33.4095 24.6402C33.5265 24.8014 33.6083 24.9853 33.6495 25.1802C33.4446 25.4557 33.2022 25.7014 32.9295 25.9102C32.5719 26.2074 32.198 26.4845 31.8095 26.7402C31.4349 26.9953 31.0441 27.2257 30.6395 27.4302C30.3735 27.5759 30.0869 27.6804 29.7895 27.7402C29.1828 27.7352 28.5824 27.6165 28.0195 27.3902C27.4478 27.1618 26.907 26.8628 26.4095 26.5002C25.9512 26.1738 25.5521 25.7713 25.2295 25.3102C24.9422 24.9404 24.781 24.4883 24.7695 24.0202C24.7816 23.3014 24.8586 22.5851 24.9995 21.8802C25.1495 21.0102 25.3695 20.0802 25.6495 19.0602C25.9295 18.0402 26.2695 16.9802 26.6495 15.8702C27.0295 14.7602 27.4395 13.6602 27.8895 12.5702H25.9195Z" fill="#0095FF"/>
<path d="M48.4997 11.83C48.7802 11.8361 49.0589 11.8764 49.3297 11.95C49.6291 12.0291 49.9204 12.1362 50.1997 12.27C50.4308 12.3823 50.6488 12.5198 50.8497 12.68C51.0297 12.82 51.1197 12.95 51.1197 13.07C50.6497 14.07 50.2097 15.07 49.8097 16.07C49.4097 17.07 49.0697 18.07 48.8097 18.96C48.5462 19.8076 48.3292 20.6688 48.1597 21.54C48.0201 22.2283 47.9431 22.9279 47.9297 23.63C47.9151 24.1842 47.9859 24.7374 48.1397 25.27C48.2463 25.6632 48.5007 25.9999 48.8497 26.21C48.5108 26.4228 48.1391 26.5782 47.7497 26.67C47.3591 26.7814 46.9557 26.8419 46.5497 26.85C45.2697 26.85 44.6397 25.98 44.6397 24.23C44.7681 22.3217 45.2283 20.4503 45.9997 18.7C45.5381 19.7424 44.993 20.7456 44.3697 21.7C43.8063 22.5829 43.1814 23.425 42.4997 24.22C41.9187 24.925 41.2538 25.5564 40.5197 26.1C39.9871 26.4979 39.3775 26.7806 38.7297 26.93C38.3025 26.9313 37.8824 26.8213 37.5107 26.6109C37.139 26.4005 36.8284 26.0969 36.6097 25.73C36.0367 24.8371 35.7506 23.7903 35.7897 22.73C35.811 21.2928 36.0992 19.872 36.6397 18.54C37.1954 17.0923 37.9276 15.7186 38.8197 14.45C39.6321 13.2771 40.6011 12.2206 41.6997 11.31C42.5215 10.5506 43.5824 10.1015 44.6997 10.04C44.9873 10.1403 45.2573 10.2854 45.4997 10.47C45.8041 10.6914 46.0885 10.939 46.3497 11.21C46.606 11.4746 46.837 11.7625 47.0397 12.07C47.198 12.2984 47.307 12.5572 47.3597 12.83C46.2973 12.9984 45.2956 13.4356 44.4497 14.1C43.4151 14.907 42.4964 15.8526 41.7197 16.91C40.9117 17.9936 40.24 19.1725 39.7197 20.42C39.2319 21.524 38.9668 22.7134 38.9397 23.92C38.9161 24.0972 38.9525 24.2772 39.0431 24.4312C39.1337 24.5853 39.2733 24.7046 39.4397 24.77C40.3888 24.4353 41.2148 23.8219 41.8097 23.01C43.0314 21.5202 44.1222 19.9277 45.0697 18.25L45.8597 16.84C46.1597 16.32 46.4597 15.77 46.7697 15.21L47.6697 13.49C47.9997 12.93 48.2397 12.37 48.4997 11.83Z" fill="#0095FF"/>
<path d="M52.0801 25.4202C52.1901 24.7402 52.4001 23.8402 52.7001 22.7202C53.0001 21.6002 53.3401 20.4002 53.7001 19.1402C54.0601 17.8802 54.5301 16.6102 54.9701 15.3302C55.4101 14.0502 55.8601 12.9102 56.2801 11.9002C56.521 11.312 56.7948 10.7377 57.1001 10.1802C57.3115 9.81162 57.5741 9.47493 57.8801 9.18018C58.2201 9.23377 58.5548 9.31743 58.8801 9.43018C59.2235 9.54473 59.5578 9.68513 59.8801 9.85018C60.1852 10.0049 60.4823 10.1752 60.7701 10.3602C60.9922 10.5062 61.194 10.681 61.3701 10.8802C60.7057 11.6675 60.1414 12.5341 59.6901 13.4602C59.142 14.6383 58.6808 15.8548 58.3101 17.1002C59.5767 15.9668 60.7034 14.8802 61.6901 13.8402C62.7003 12.7634 63.6169 11.6025 64.4301 10.3702C64.6529 10.2375 64.9117 10.1781 65.1701 10.2002C65.5104 10.1923 65.8492 10.2465 66.1701 10.3602C66.4287 10.4266 66.6554 10.5825 66.8101 10.8002C66.3928 11.8715 66.1759 13.0104 66.1701 14.1602C66.1183 14.9668 66.2768 15.7731 66.6301 16.5002C66.5224 16.7979 66.3595 17.0727 66.1501 17.3102C65.8473 17.7128 65.5129 18.0907 65.1501 18.4402C64.4986 18.1085 63.9178 17.6534 63.4401 17.1002C62.9579 16.5449 62.5847 15.9037 62.3401 15.2102C61.3427 15.9005 60.3968 16.6625 59.5101 17.4902C58.7352 18.2234 58.0625 19.0575 57.5101 19.9702C56.9209 20.957 56.4446 22.0069 56.0901 23.1002C55.7101 24.2802 55.3301 25.6902 54.9801 27.3202C54.7185 27.2742 54.4633 27.197 54.2201 27.0902C53.9113 26.9537 53.6137 26.7932 53.3301 26.6102C53.0514 26.4313 52.7872 26.2307 52.5401 26.0102C52.3436 25.8513 52.1862 25.6495 52.0801 25.4202Z" fill="#0095FF"/>
<path d="M69.2797 12.5702C69.1115 12.2957 69.0025 11.9892 68.9597 11.6702C68.8761 11.2787 68.8292 10.8803 68.8197 10.4802C69.4048 10.5773 69.9967 10.6274 70.5897 10.6302H72.1497C72.4997 9.93018 72.8897 9.23018 73.2997 8.54018C73.7097 7.85018 74.1097 7.22018 74.4997 6.65018C74.841 6.14807 75.2081 5.66408 75.5997 5.20018C75.8298 4.908 76.099 4.6489 76.3997 4.43018C76.703 4.43946 77.0046 4.47966 77.2997 4.55018C77.6697 4.64018 78.0397 4.74018 78.4197 4.87018C78.7997 5.00018 79.1397 5.14018 79.4197 5.28018C79.66 5.37403 79.878 5.51709 80.0597 5.70018C79.3497 6.60018 78.7397 7.42018 78.2397 8.18018C77.7397 8.94018 77.1797 9.82018 76.5897 10.8002H77.9997C78.4915 10.8017 78.9827 10.7683 79.4697 10.7002C79.5986 10.8229 79.6978 10.9734 79.7597 11.1402C79.8275 11.3156 79.8614 11.5022 79.8597 11.6902C78.5097 12.1712 77.0824 12.3984 75.6497 12.3602C75.0597 13.5002 74.5297 14.6302 74.0697 15.7502C73.6097 16.8702 73.2597 17.9602 72.9997 19.0002C72.6985 19.9664 72.4481 20.9477 72.2497 21.9402C72.0889 22.7607 72.0019 23.5941 71.9897 24.4302C71.9897 25.4702 72.3797 26.0502 73.1597 26.1702C73.8457 26.0768 74.5175 25.8988 75.1597 25.6402C75.775 25.3974 76.3486 25.06 76.8597 24.6402C76.979 24.8013 77.0641 24.985 77.1097 25.1802C76.9035 25.458 76.6575 25.7039 76.3797 25.9102C76.0256 26.2074 75.655 26.4845 75.2697 26.7402C74.8951 26.9953 74.5042 27.2257 74.0997 27.4302C73.8331 27.5745 73.5467 27.679 73.2497 27.7402C72.643 27.7352 72.0426 27.6165 71.4797 27.3902C70.907 27.164 70.3659 26.8648 69.8697 26.5002C69.4114 26.1738 69.0123 25.7713 68.6897 25.3102C68.3995 24.9413 68.2348 24.4893 68.2197 24.0202C68.2371 23.3017 68.314 22.5859 68.4497 21.8802C68.6097 21.0102 68.8297 20.0802 69.1097 19.0602C69.3897 18.0402 69.7197 16.9802 70.1097 15.8702C70.4997 14.7602 70.8997 13.6602 71.3497 12.5702H69.2797Z" fill="#0095FF"/>
<path d="M112.61 6.61991C112.631 8.02005 112.211 9.39131 111.41 10.5399C110.549 11.732 109.423 12.7076 108.12 13.3899C108.987 13.9734 109.717 14.7376 110.26 15.6299C110.791 16.5144 111.068 17.5283 111.06 18.5599C111.036 19.8993 110.638 21.2053 109.91 22.3299C109.099 23.6073 108.058 24.7229 106.84 25.6199C105.513 26.6039 104.047 27.3858 102.49 27.9399C100.888 28.5242 99.1953 28.8221 97.4899 28.8199C95.8208 28.8674 94.1636 28.525 92.6499 27.8199C91.3065 27.1522 90.1848 26.1104 89.4199 24.8199C89.6466 24.1132 89.9566 23.2332 90.3499 22.1799C90.7399 21.1799 91.1699 20.0199 91.6499 18.8599C92.1299 17.6999 92.6499 16.5299 93.0799 15.3699C93.5099 14.2099 94.0199 13.1699 94.4399 12.2499C95.3399 10.2499 96.1399 8.57991 96.8499 7.24991C97.4367 6.15129 98.1053 5.09832 98.8499 4.09991C97.6392 4.46879 96.4562 4.92327 95.3099 5.45991C94.4613 5.83104 93.6726 6.32647 92.9699 6.92991C92.7217 6.7551 92.5024 6.54253 92.3199 6.29991C92.085 6.00186 91.8711 5.68776 91.6799 5.35991C91.4812 5.0261 91.3138 4.6746 91.1799 4.30991C91.0641 4.00401 90.9869 3.68489 90.9499 3.35991C91.6985 2.86517 92.5001 2.45594 93.3399 2.13991C94.385 1.73116 95.4576 1.39699 96.5499 1.13991C97.7203 0.849972 98.9053 0.62298 100.1 0.459906C101.257 0.30407 102.423 0.223899 103.59 0.219906C105.932 0.0852404 108.259 0.679098 110.25 1.91991C111.009 2.43994 111.623 3.14382 112.036 3.96576C112.448 4.7877 112.646 5.70087 112.61 6.61991ZM99.1299 15.0999C98.6537 14.8531 98.232 14.513 97.8899 14.0999C97.3399 15.2999 96.8299 16.4799 96.3499 17.6399C95.8699 18.7999 95.4299 19.8699 95.0499 20.8599C94.6699 21.8499 94.3699 22.7199 94.1299 23.4499C93.9464 23.9859 93.8158 24.5385 93.7399 25.0999C94.1109 25.3041 94.5129 25.446 94.9299 25.5199C95.4964 25.6299 96.0729 25.6802 96.6499 25.6699C98.2087 25.6749 99.7593 25.4457 101.25 24.9899C102.628 24.568 103.931 23.9301 105.11 23.0999C106.153 22.3957 107.052 21.4998 107.76 20.4599C108.399 19.5476 108.747 18.4636 108.76 17.3499C108.799 16.653 108.63 15.9601 108.274 15.3598C107.918 14.7595 107.391 14.2791 106.76 13.9799C104.778 14.7661 102.661 15.1535 100.53 15.1199H99.7699C99.5564 15.1313 99.3423 15.1246 99.1299 15.0999ZM106 2.79991C105.475 2.80168 104.951 2.83172 104.43 2.88991C103.87 2.94991 103.29 3.03991 102.68 3.15991C102.77 3.24844 102.848 3.34947 102.91 3.45991C102.91 3.55991 103.02 3.66991 103.07 3.78991C102.782 4.18506 102.521 4.59935 102.29 5.02991C101.98 5.57991 101.64 6.20991 101.29 6.92991C100.94 7.64991 100.52 8.43991 100.1 9.31991C99.6799 10.1999 99.2699 11.0899 98.8499 12.0099C99.3341 11.8998 99.8253 11.823 100.32 11.7799C100.888 11.7203 101.459 11.6902 102.03 11.6899C102.34 11.6899 102.64 11.6899 102.94 11.6899C103.24 11.6899 103.52 11.7499 103.8 11.7999C104.85 11.6324 105.879 11.3541 106.87 10.9699C107.703 10.6418 108.492 10.2118 109.22 9.68991C109.814 9.26397 110.318 8.72335 110.7 8.09991C111.049 7.53889 111.233 6.8907 111.23 6.22991C111.255 5.72116 111.144 5.21497 110.908 4.76333C110.673 4.31168 110.321 3.93084 109.89 3.65991C108.7 3.01409 107.352 2.71608 106 2.79991Z" fill="#0095FF"/>
<path d="M117.53 27.3701C116.899 27.3176 116.286 27.1328 115.732 26.8279C115.177 26.5229 114.693 26.1046 114.31 25.6001C113.468 24.4416 113.045 23.0309 113.11 21.6001C113.117 20.6056 113.258 19.6166 113.53 18.6601C113.82 17.6181 114.226 16.6118 114.74 15.6601C115.261 14.6975 115.878 13.7896 116.58 12.9501C117.256 12.1298 118.028 11.3945 118.88 10.7601C119.908 9.89459 121.189 9.3858 122.53 9.31006C123.484 9.93336 124.253 10.7998 124.76 11.8201H125.08H125.39C126.65 11.8201 127.27 12.9301 127.27 15.1501C127.28 16.5922 127.033 18.0247 126.54 19.3801C126.078 20.6921 125.402 21.9186 124.54 23.0101C123.679 24.0966 122.637 25.0268 121.46 25.7601C120.252 26.5179 118.923 27.0624 117.53 27.3701ZM119.34 16.2201C118.923 16.7835 118.546 17.3749 118.21 17.9901C117.861 18.6123 117.554 19.2571 117.29 19.9201C117.043 20.5274 116.843 21.1525 116.69 21.7901C116.552 22.3192 116.478 22.8632 116.47 23.4101C116.47 23.963 116.568 24.5116 116.76 25.0301C116.94 25.5501 117.16 25.8501 117.39 25.9201C118.446 25.6873 119.441 25.234 120.31 24.5901C121.214 23.9233 121.996 23.1044 122.62 22.1701C123.285 21.15 123.797 20.0383 124.14 18.8701C124.512 17.5933 124.697 16.2697 124.69 14.9401C124.698 14.4544 124.662 13.9689 124.58 13.4901C124.519 13.1651 124.4 12.8537 124.23 12.5701C123.207 12.8818 122.261 13.4028 121.45 14.1001C120.672 14.7283 119.965 15.4391 119.34 16.2201Z" fill="#0095FF"/>
<path d="M133.15 27.3701C132.518 27.32 131.905 27.1364 131.35 26.8312C130.794 26.5261 130.31 26.1064 129.93 25.6001C129.079 24.4451 128.652 23.0327 128.72 21.6001C128.725 20.6048 128.869 19.6151 129.15 18.6601C129.432 17.6169 129.835 16.6101 130.35 15.6601C130.871 14.6975 131.487 13.7896 132.19 12.9501C132.868 12.1322 133.64 11.3971 134.49 10.7601C135.518 9.89584 136.799 9.38722 138.14 9.31006C139.096 9.93074 139.866 10.7979 140.37 11.8201H140.69H141.01C142.26 11.8201 142.88 12.9301 142.88 15.1501C142.888 16.5913 142.645 18.0228 142.16 19.3801C141.694 20.6902 141.018 21.9161 140.16 23.0101C139.298 24.0966 138.257 25.0268 137.08 25.7601C135.872 26.5189 134.543 27.0636 133.15 27.3701ZM135 16.2201C134.583 16.7835 134.206 17.3749 133.87 17.9901C133.525 18.6144 133.218 19.2589 132.95 19.9201C132.703 20.5274 132.502 21.1525 132.35 21.7901C132.216 22.3202 132.143 22.8636 132.13 23.4101C132.129 23.963 132.228 24.5116 132.42 25.0301C132.61 25.5501 132.82 25.8501 133.06 25.9201C134.115 25.6833 135.109 25.2305 135.98 24.5901C136.879 23.9203 137.657 23.1018 138.28 22.1701C138.949 21.1522 139.461 20.0399 139.8 18.8701C140.176 17.5944 140.361 16.27 140.35 14.9401C140.358 14.4544 140.321 13.9689 140.24 13.4901C140.178 13.1651 140.06 12.8537 139.89 12.5701C138.849 12.8754 137.885 13.3967 137.06 14.1001C136.302 14.7336 135.611 15.444 135 16.2201Z" fill="#0095FF"/>
<path d="M146.32 12.5702C146.147 12.2978 146.038 11.9903 146 11.6702C145.911 11.2796 145.864 10.8807 145.86 10.4802C146.445 10.5781 147.037 10.6282 147.63 10.6302H149.18C149.54 9.93018 149.92 9.23018 150.33 8.54018C150.74 7.85018 151.15 7.22018 151.54 6.65018C151.878 6.14574 152.245 5.66158 152.64 5.20018C152.867 4.90885 153.133 4.6498 153.43 4.43018C153.737 4.43877 154.042 4.47899 154.34 4.55018C154.7 4.64018 155.07 4.74018 155.45 4.87018C155.83 5.00018 156.17 5.14018 156.45 5.28018C156.687 5.37365 156.902 5.51686 157.08 5.70018C156.38 6.60018 155.77 7.42018 155.26 8.18018C154.75 8.94018 154.2 9.82018 153.62 10.8002H155.05C155.542 10.801 156.033 10.7676 156.52 10.7002C156.646 10.8235 156.742 10.974 156.8 11.1402C156.871 11.315 156.908 11.5016 156.91 11.6902C155.556 12.1713 154.126 12.3985 152.69 12.3602C152.1 13.5002 151.58 14.6302 151.12 15.7502C150.66 16.8702 150.27 17.9602 149.95 19.0002C149.647 19.9652 149.4 20.9468 149.21 21.9402C149.041 22.7597 148.951 23.5935 148.94 24.4302C148.94 25.4702 149.33 26.0502 150.11 26.1702C150.796 26.076 151.467 25.898 152.11 25.6402C152.724 25.3951 153.297 25.0579 153.81 24.6402C153.925 24.8036 154.01 24.9866 154.06 25.1802C153.848 25.4531 153.603 25.6983 153.33 25.9102C152.974 26.2098 152.6 26.487 152.21 26.7402C151.837 26.993 151.45 27.2234 151.05 27.4302C150.783 27.5745 150.497 27.679 150.2 27.7402C149.593 27.7352 148.993 27.6165 148.43 27.3902C147.857 27.164 147.316 26.8648 146.82 26.5002C146.359 26.1736 145.957 25.7712 145.63 25.3102C145.343 24.9404 145.181 24.4883 145.17 24.0202C145.187 23.3017 145.264 22.5859 145.4 21.8802C145.55 21.0102 145.77 20.0802 146.05 19.0602C146.33 18.0402 146.67 16.9802 147.05 15.8702C147.43 14.7602 147.84 13.6602 148.28 12.5702H146.32Z" fill="#0095FF"/>
<path d="M168.9 11.9901C168.874 12.4637 168.797 12.9331 168.67 13.3901C168.551 13.8391 168.393 14.2773 168.2 14.7001C168.04 15.0579 167.835 15.3939 167.59 15.7001C167.525 15.8053 167.438 15.8948 167.334 15.9622C167.23 16.0296 167.113 16.0733 166.99 16.0901C166.73 16.0901 166.58 15.8901 166.53 15.5601C166.542 15.4428 166.573 15.328 166.62 15.2201C166.68 15.0701 166.74 14.9001 166.81 14.7101C166.88 14.5201 166.95 14.3301 167.01 14.1401C167.065 13.9823 167.095 13.817 167.1 13.6501C167.108 13.3536 167.028 13.0614 166.87 12.8101C166.803 12.7074 166.711 12.6233 166.603 12.5656C166.494 12.508 166.373 12.4785 166.25 12.4801C165.3 12.4801 164.58 13.0701 164.09 14.2401C163.516 15.9039 163.265 17.6621 163.35 19.4201C163.332 19.5595 163.332 19.7007 163.35 19.8401H165.83C165.846 19.9328 165.846 20.0274 165.83 20.1201C165.841 20.2023 165.834 20.2857 165.809 20.365C165.785 20.4443 165.745 20.5175 165.69 20.5801L164.4 20.8801C164.152 20.9394 163.908 21.0162 163.67 21.1101C163.548 21.1518 163.442 21.2326 163.37 21.3401C163.335 21.4465 163.318 21.5581 163.32 21.6701C163.32 21.8601 163.32 22.0501 163.32 22.2401C163.32 22.4301 163.32 22.6601 163.32 22.9401C163.403 24.673 162.828 26.3732 161.71 27.7001C160.544 28.95 158.938 29.6991 157.23 29.7901C156.883 29.7568 156.544 29.662 156.23 29.5101C155.874 29.3357 155.538 29.121 155.23 28.8701C154.916 28.6182 154.637 28.3256 154.4 28.0001C154.175 27.6998 154.005 27.361 153.9 27.0001C153.898 26.1054 154.093 25.2213 154.47 24.4101C154.845 23.5975 155.367 22.8616 156.01 22.2401C156.68 21.5947 157.459 21.0733 158.31 20.7001C159.222 20.3036 160.206 20.1026 161.2 20.1101C161.201 19.5254 161.141 18.9423 161.02 18.3701C160.9 17.8001 160.78 17.2501 160.65 16.7201C160.52 16.1901 160.39 15.6601 160.28 15.1501C160.162 14.6554 160.102 14.1487 160.1 13.6401C160.103 12.9872 160.236 12.3414 160.49 11.7401C160.738 11.1151 161.075 10.5291 161.49 10.0001C161.908 9.46831 162.408 9.00594 162.97 8.6301C163.508 8.26432 164.108 7.99997 164.74 7.8501C165.109 7.9938 165.448 8.20395 165.74 8.4701C166.192 8.82801 166.623 9.212 167.03 9.6201C167.437 10.0229 167.815 10.454 168.16 10.9101C168.478 11.216 168.73 11.5835 168.9 11.9901ZM157.22 28.1001C157.808 27.857 158.352 27.5192 158.83 27.1001C159.844 26.1973 160.612 25.0513 161.06 23.7701C161.282 23.1678 161.397 22.5317 161.4 21.8901C160.839 21.9962 160.307 22.2213 159.84 22.5501C158.698 23.299 157.729 24.2845 157 25.4401C156.71 25.8603 156.537 26.3506 156.5 26.8601C156.507 27.1105 156.577 27.3551 156.703 27.5717C156.828 27.7883 157.006 27.97 157.22 28.1001Z" fill="#0095FF"/>
<path d="M171 12.5702C170.827 12.2978 170.718 11.9903 170.68 11.6702C170.591 11.2796 170.544 10.8807 170.54 10.4802C171.125 10.5781 171.717 10.6282 172.31 10.6302H173.87C174.22 9.93018 174.6 9.23018 175.02 8.54018C175.44 7.85018 175.83 7.22018 176.22 6.65018C176.558 6.14574 176.925 5.66158 177.32 5.20018C177.547 4.90885 177.813 4.6498 178.11 4.43018C178.416 4.43877 178.721 4.47899 179.02 4.55018C179.38 4.64018 179.75 4.74018 180.13 4.87018C180.51 5.00018 180.85 5.14018 181.13 5.28018C181.367 5.37365 181.582 5.51686 181.76 5.70018C181.06 6.60018 180.45 7.42018 179.94 8.18018C179.43 8.94018 178.89 9.82018 178.3 10.8002H179.73C180.221 10.801 180.713 10.7676 181.2 10.7002C181.325 10.8235 181.421 10.974 181.48 11.1402C181.551 11.315 181.588 11.5016 181.59 11.6902C180.239 12.1703 178.812 12.3975 177.38 12.3602C176.78 13.5002 176.26 14.6302 175.8 15.7502C175.34 16.8702 174.95 17.9602 174.63 19.0002C174.327 19.9652 174.08 20.9468 173.89 21.9402C173.721 22.7597 173.63 23.5935 173.62 24.4302C173.62 25.4702 174.01 26.0502 174.79 26.1702C175.475 26.076 176.147 25.898 176.79 25.6402C177.404 25.3951 177.977 25.0579 178.49 24.6402C178.605 24.8036 178.689 24.9866 178.74 25.1802C178.528 25.4531 178.283 25.6983 178.01 25.9102C177.654 26.2098 177.28 26.487 176.89 26.7402C176.517 26.993 176.13 27.2234 175.73 27.4302C175.463 27.5745 175.177 27.679 174.88 27.7402C174.273 27.7352 173.673 27.6165 173.11 27.3902C172.537 27.164 171.996 26.8648 171.5 26.5002C171.039 26.1736 170.636 25.7712 170.31 25.3102C170.022 24.9404 169.861 24.4883 169.85 24.0202C169.867 23.3017 169.944 22.5859 170.08 21.8802C170.23 21.0102 170.45 20.0802 170.73 19.0602C171.01 18.0402 171.35 16.9802 171.73 15.8702C172.11 14.7602 172.52 13.6602 172.96 12.5702H171Z" fill="#0095FF"/>
<path d="M180.55 25.4202C180.67 24.7402 180.87 23.8402 181.17 22.7202C181.47 21.6002 181.81 20.4002 182.17 19.1402C182.53 17.8802 183 16.6102 183.45 15.3302C183.9 14.0502 184.33 12.9102 184.76 11.9002C184.998 11.3124 185.268 10.7382 185.57 10.1802C185.787 9.81586 186.049 9.47996 186.35 9.18018C186.69 9.23538 187.024 9.31901 187.35 9.43018C187.693 9.54599 188.027 9.68635 188.35 9.85018C188.656 10.0027 188.953 10.173 189.24 10.3602C189.462 10.5062 189.664 10.681 189.84 10.8802C189.175 11.6675 188.611 12.5341 188.16 13.4602C187.62 14.6417 187.159 15.8577 186.78 17.1002C188.06 15.9702 189.18 14.8802 190.16 13.8402C191.173 12.7636 192.093 11.6027 192.91 10.3702C193.132 10.2362 193.391 10.1767 193.65 10.2002C193.973 10.1972 194.295 10.2514 194.6 10.3602C194.858 10.4266 195.085 10.5825 195.24 10.8002C194.827 11.8729 194.611 13.0109 194.6 14.1602C194.551 14.9678 194.713 15.7742 195.07 16.5002C194.953 16.7938 194.791 17.0671 194.59 17.3102C194.287 17.7126 193.952 18.0904 193.59 18.4402C192.284 17.7461 191.288 16.5858 190.8 15.1902C189.812 15.895 188.876 16.6703 188 17.5102C187.231 18.2487 186.559 19.082 186 19.9902C185.408 20.9702 184.929 22.0133 184.57 23.1002C184.18 24.2802 183.81 25.6902 183.45 27.3202C183.188 27.2728 182.934 27.1957 182.69 27.0902C182.079 26.8193 181.51 26.4624 181 26.0302C180.804 25.8645 180.65 25.6557 180.55 25.4202Z" fill="#0095FF"/>
<path d="M207.88 11.83C208.16 11.8361 208.439 11.8764 208.71 11.95C209.009 12.0291 209.3 12.1362 209.58 12.27C209.811 12.3823 210.029 12.5198 210.23 12.68C210.41 12.82 210.5 12.95 210.5 13.07C210.03 14.07 209.59 15.07 209.19 16.07C208.79 17.07 208.45 18.07 208.19 18.96C207.926 19.8076 207.709 20.6688 207.54 21.54C207.395 22.2276 207.318 22.9275 207.31 23.63C207.295 24.1842 207.366 24.7374 207.52 25.27C207.626 25.6632 207.881 25.9999 208.23 26.21C207.891 26.4228 207.519 26.5782 207.13 26.67C206.739 26.7814 206.336 26.8419 205.93 26.85C204.65 26.85 204.02 25.98 204.02 24.23C204.148 22.327 204.601 20.46 205.36 18.71C204.898 19.7524 204.353 20.7556 203.73 21.71C203.166 22.5929 202.541 23.435 201.86 24.23C201.284 24.9303 200.626 25.5582 199.9 26.1C199.367 26.4979 198.757 26.7806 198.11 26.93C197.682 26.9313 197.262 26.8213 196.891 26.6109C196.519 26.4005 196.208 26.0969 195.99 25.73C195.417 24.8371 195.13 23.7903 195.17 22.73C195.191 21.2928 195.479 19.872 196.02 18.54C196.575 17.0923 197.307 15.7186 198.2 14.45C199.009 13.2747 199.978 12.2179 201.08 11.31C201.901 10.5506 202.962 10.1015 204.08 10.04C204.367 10.1403 204.637 10.2854 204.88 10.47C205.184 10.6914 205.468 10.939 205.73 11.21C205.986 11.4746 206.217 11.7625 206.42 12.07C206.578 12.2984 206.687 12.5572 206.74 12.83C205.677 12.9984 204.675 13.4356 203.83 14.1C202.795 14.907 201.876 15.8526 201.1 16.91C200.292 17.9936 199.62 19.1725 199.1 20.42C198.612 21.524 198.347 22.7134 198.32 23.92C198.296 24.0972 198.332 24.2772 198.423 24.4312C198.514 24.5853 198.653 24.7046 198.82 24.77C199.769 24.4353 200.595 23.8219 201.19 23.01C202.411 21.5202 203.502 19.9277 204.45 18.25L205.24 16.84C205.54 16.32 205.84 15.77 206.15 15.21L207.05 13.49C207.34 12.93 207.62 12.37 207.88 11.83Z" fill="#0095FF"/>
<path d="M209.72 37.8498C209.39 37.7598 209.2 37.3998 209.15 36.7898C209.052 36.4299 208.989 36.0616 208.96 35.6898C208.96 35.2698 208.91 34.7798 208.91 34.2398C208.933 33.5675 209.013 32.8984 209.15 32.2398C209.32 31.3798 209.55 30.4098 209.85 29.3198C210.15 28.2298 210.5 27.0598 210.93 25.7998C211.36 24.5398 211.82 23.2598 212.34 21.9598C212.98 20.3298 213.53 18.9598 214.01 17.7298C214.49 16.4998 214.87 15.4998 215.19 14.6298C215.51 13.7598 215.77 13.0398 215.97 12.4698C216.17 11.8998 216.33 11.4698 216.45 11.0198C216.569 10.678 216.709 10.344 216.87 10.0198C217.069 9.60198 217.289 9.19477 217.53 8.7998C217.77 8.3898 218.03 7.9998 218.29 7.6298C218.495 7.32764 218.733 7.04926 219 6.7998C219.801 6.91245 220.584 7.12754 221.33 7.4398C221.852 7.60452 222.319 7.90884 222.68 8.3198C222.249 8.75452 221.87 9.23774 221.55 9.7598C221.1 10.4441 220.686 11.1518 220.31 11.8798C219.903 12.6471 219.536 13.4348 219.21 14.2398C218.917 14.9295 218.67 15.6377 218.47 16.3598C218.742 15.9 219.05 15.462 219.39 15.0498C219.76 14.5798 220.39 13.9298 221.12 13.0998C221.859 12.319 222.685 11.6246 223.58 11.0298C224.17 10.6138 224.861 10.365 225.58 10.3098C226.383 10.2728 227.171 10.5367 227.79 11.0498C228.071 11.281 228.295 11.5732 228.446 11.9042C228.597 12.2352 228.67 12.5962 228.66 12.9598C228.658 14.6786 228.371 16.3852 227.81 18.0098C227.262 19.642 226.436 21.1677 225.37 22.5198C224.96 23.0355 224.501 23.511 224 23.9398C223.47 24.4034 222.901 24.8215 222.3 25.1898C221.755 25.539 221.175 25.8305 220.57 26.0598C220.086 26.2538 219.572 26.362 219.05 26.3798C218.66 26.389 218.274 26.2959 217.93 26.1098C217.645 25.9751 217.415 25.7453 217.28 25.4598C218.286 24.8432 219.193 24.0779 219.97 23.1898C220.889 22.162 221.7 21.0428 222.39 19.8498C223.155 18.5444 223.808 17.1761 224.34 15.7598C224.886 14.3117 225.308 12.8196 225.6 11.2998C224.746 11.7391 223.932 12.2545 223.17 12.8398C222.359 13.473 221.63 14.2054 221 15.0198C220.15 16.0198 219.48 16.8898 219 17.5298C218.52 18.1698 218.1 18.7098 217.78 19.1598C217.491 19.5573 217.23 19.9751 217 20.4098C216.8 20.7998 216.58 21.2798 216.35 21.8498C216.02 22.5998 215.63 23.5998 215.2 24.8498C214.77 26.0998 214.31 27.4698 213.85 29.0098C213.39 30.5498 212.93 32.1798 212.47 33.9098C212.01 35.6398 211.57 37.3798 211.14 39.0998C210.992 39.0622 210.855 38.9912 210.739 38.8924C210.623 38.7936 210.531 38.6696 210.47 38.5298C210.28 38.3198 210.14 38.1698 210.06 38.0698C209.967 37.9689 209.85 37.8932 209.72 37.8498Z" fill="#0095FF"/>
</g>
<defs>
<clipPath id="clip0_2012_4">
<rect width="228.66" height="39.08" fill="white"/>
</clipPath>
</defs>
</svg>
